<svg width="48" height="48" viewBox="0 0 48 48" fill="none" xmlns="http://www.w3.org/2000/svg">
  <rect width="48" height="48" rx="8" fill="#094770"/>
  <path d="M15 28C15 25.7909 16.7909 24 19 24H29C31.2091 24 33 25.7909 33 28V34C33 36.2091 31.2091 38 29 38H19C16.7909 38 15 36.2091 15 34V28Z" fill="#45BDA1"/>
  <path d="M21 14C21 11.7909 22.7909 10 25 10H29C31.2091 10 33 11.7909 33 14V20C33 22.2091 31.2091 24 29 24H25C22.7909 24 21 22.2091 21 20V14Z" fill="#55C7E1"/>
  <path d="M15 14C15 11.7909 16.7909 10 19 10H23C25.2091 10 27 11.7909 27 14V20C27 22.2091 25.2091 24 23 24H19C16.7909 24 15 22.2091 15 20V14Z" fill="#13274B"/>
</svg>